<svg xmlns="http://www.w3.org/2000/svg" viewBox="0 0 238.66 238.66"><defs><style>.cls-1{fill:#b20000;stroke:#b20000;}.cls-1,.cls-2,.cls-3{stroke-linecap:round;stroke-linejoin:round;}.cls-1,.cls-2{stroke-width:8px;}.cls-2{fill:none;}.cls-2,.cls-3{stroke:#fff;}.cls-3{fill:#fff;}</style></defs><g id="Layer_1" data-name="Layer 1"><rect class="cls-1" x="39.03" y="39.32" width="162" height="162" transform="translate(-49.93 120.11) rotate(-45)"/><polyline class="cls-2" points="113.72 99.66 113.72 31.23 24.74 120.2 113.72 120.2 113.72 209.65"/><line class="cls-2" x1="113.72" y1="120.2" x2="69.23" y2="164.69"/><polyline class="cls-2" points="126.21 109.43 126.21 30.99 215.19 119.97 126.21 119.97 126.21 199.42"/><path class="cls-3" d="M123.1,16.7a4.34,4.34,0,1,1-6.14,0A4.35,4.35,0,0,1,123.1,16.7Z"/><path class="cls-3" d="M123.1,217.8a4.34,4.34,0,1,1-6.14,0A4.35,4.35,0,0,1,123.1,217.8Z"/></g></svg>